<svg width="20" height="19" viewBox="0 0 20 19" fill="none" xmlns="http://www.w3.org/2000/svg">
<path fill-rule="evenodd" clip-rule="evenodd" d="M18.5122 18.013H1.48823C0.67223 18.013 0.0112305 17.434 0.0112305 16.72V1.28199C0.0112305 0.56899 0.67223 -0.0100098 1.48823 -0.0100098H18.5122C19.3272 -0.0100098 19.9882 0.56899 19.9882 1.28199V16.72C19.9882 17.434 19.3272 18.013 18.5122 18.013ZM3.47323 15.044H6.41523V6.90699H3.47323V15.044ZM4.96423 2.98499C3.95723 2.98499 3.30023 3.59199 3.30023 4.39099C3.30023 5.17099 3.93823 5.79699 4.92523 5.79699H4.94423C5.97023 5.79699 6.60823 5.17099 6.60823 4.39099C6.59023 3.59199 5.97023 2.98499 4.96423 2.98499ZM17.0232 10.379C17.0232 7.87899 15.5712 6.71599 13.6362 6.71599C12.0742 6.71599 11.3762 7.50499 10.9852 8.05999V6.90699H8.04323C8.08223 7.67099 8.04323 15.044 8.04323 15.044H10.9852V10.5C10.9852 10.258 11.0042 10.014 11.0822 9.84099C11.2942 9.35499 11.7792 8.85199 12.5912 8.85199C13.6562 8.85199 14.0812 9.59799 14.0812 10.692V15.044H17.0232V10.379ZM10.9652 8.08699C10.9712 8.07799 10.9792 8.06899 10.9852 8.05999V8.08699H10.9652Z" fill="white"/>
</svg>
